<svg xmlns="http://www.w3.org/2000/svg" xmlns:xlink="http://www.w3.org/1999/xlink" version="1.1" x="0px" y="0px" viewBox="0 0 100 100" enable-background="new 0 0 100 100" xml:space="preserve"><g><path d="M85.489,50.566c1.979-4.697,0.133-9.429-0.277-10.368c-0.92-3.005-2.617-5.167-5.045-6.425   c-0.834-0.433-1.695-0.721-2.545-0.906c3.709-2.286,6.123-2.917,6.172-2.93l2.045-0.483l-2.549-8.829l-1.668,0.179   c-2.219,0.238-5.596,0.992-8.074,1.592l-1.051-2.825l-1.553,0.175c-9.83,1.107-16.293,9.78-18.889,14   c-3.069-2.26-6.169-3.507-9.251-3.707c-0.384-2.407-1.531-6.329-4.979-7.891l-1.651,3.644c1.543,0.699,2.296,2.899,2.62,4.59   c-1.147,0.267-2.207,0.663-3.175,1.139c-3.007-2.232-5.744-2.931-8.147-2.059c-4.077,1.482-5.096,6.752-5.199,7.348l0.314,0.055   c-0.127,0.022-0.247,0.05-0.371,0.075c-0.774-1.333-2.565-3.717-5.926-4.799l-1.227,3.808c1.567,0.504,2.567,1.451,3.17,2.224   c-0.25,0.108-0.442,0.197-0.546,0.248c-5.208,2.099-5.679,8.004-4.985,12.147h-2.077v2c0,15.365,17.215,27.865,38.375,27.865   c21.161,0,38.376-12.5,38.376-27.865v-2H85.489z M78.343,37.333c1.473,0.771,2.479,2.123,3.074,4.134l0.111,0.291   c0.025,0.051,2.275,4.928-0.635,8.809H67.917c-0.76-1.846-1.92-6.115,0.93-10.657c1.105-1.101,2.18-2.086,3.213-2.965   C73.085,36.681,76.005,36.109,78.343,37.333z M63.022,46.585c0.057,1.524,0.332,2.878,0.66,3.98h-3.506   C61.128,49.146,62.077,47.822,63.022,46.585z M80.882,26.706c-3.303,1.296-10.287,4.854-17.99,13.697   c2.93-6.152,6.984-11.123,9.1-13.495c1.465-0.379,5.441-1.383,8.404-1.89L80.882,26.706z M69.05,24.18   c-3.539,3.926-11.938,14.38-13.366,26.386h-2.967c2.088-1.758,2.708-3.385,2.861-3.908c1.448-4.296,0.664-7.636-0.662-9.888   C56.507,33.998,61.507,26.306,69.05,24.18z M50.097,37.255c0.037,0.023,3.646,2.39,1.678,8.165l-0.052,0.179   c-0.008,0.03-1.148,3.057-8.009,4.968h-7.736c-0.089-5.123-1.324-8.888-3.693-11.226c0.887-1.142,3.813-4.499,8.034-5.199   c3.091-0.509,6.332,0.503,9.639,3.017L50.097,37.255z M28.846,33.218c0.792-0.285,1.877-0.034,3.148,0.692   c-1.622,1.373-2.687,2.713-3.113,3.297c-0.812-0.281-1.639-0.447-2.461-0.524C26.78,35.482,27.566,33.678,28.846,33.218z    M19.229,42.11l0.174-0.078c0.056-0.028,5.687-2.768,9.217-0.554c2.615,1.638,3.309,5.638,3.376,9.088H16.788   C16.425,48.734,15.722,43.484,19.229,42.11z M49,76.432c-17.985,0-32.788-9.639-34.255-21.867h68.512   C81.788,66.793,66.985,76.432,49,76.432z"></path></g></svg>